<!--?xml version="1.0" encoding="utf-8"?-->
<!-- Generator: Adobe Illustrator 18.0.0, SVG Export Plug-In . SVG Version: 6.00 Build 0)  -->

<svg version="1.1" id="_x32_" xmlns="http://www.w3.org/2000/svg" xmlns:xlink="http://www.w3.org/1999/xlink" x="0px" y="0px" viewBox="0 0 512 512" style="width: 256px; height: 256px; opacity: 1;" xml:space="preserve">
    <style type="text/css">
        .st0{fill:#4B4B4B;}
    </style>
    <g>
        <path class="st0" d="M149.25,367.566c0,30.471,0,53.324,0,53.324h106.748h106.75c0,0,0-22.854,0-53.324
            c0-60.945-85.131-86.781-85.131-107.35v-11.543c0-20.568,85.131-46.404,85.131-107.348c0-30.472,0-53.326,0-53.326h-106.75H149.25
            c0,0,0,22.854,0,53.326c0,60.944,85.131,86.78,85.131,107.348v11.543C234.381,280.785,149.25,306.621,149.25,367.566z" style="fill: rgb(217, 214, 193);"></path>
        <rect x="121.773" class="st0" width="268.453" height="48" style="fill: rgb(217, 214, 193);"></rect>
        <rect x="121.773" y="456" class="st0" width="268.453" height="56" style="fill: rgb(217, 214, 193);"></rect>
    </g>
</svg>
